<svg width="305" height="168" viewBox="0 0 305 168" fill="none" xmlns="http://www.w3.org/2000/svg">
<g clip-path="url(#clip0)">
<rect width="305" height="168" fill="white"/>
<path d="M-0.386719 0H304.999V171.884H-0.386719V0Z" fill="#7CCCFF"/>
<path d="M-0.386719 133.502H288.312V140.733H-0.386719V133.502Z" fill="#E6A98D"/>
<path d="M238.396 145.944L289.69 287.957L280.394 287.957L214.33 145.944L238.396 145.944Z" fill="#E5A58A"/>
<path d="M225.177 145.944L284.141 287.957L280.394 287.957L214.33 145.944L225.177 145.944Z" fill="#D48969"/>
<path d="M203.184 115.145H288.291V133.502H203.184V115.145Z" fill="#00A9AC"/>
<path d="M203.204 130.165H288.312V133.502H203.204V130.165Z" fill="#018E90"/>
<path d="M193.171 99.5698H276.053V115.145H193.171V99.5698Z" fill="#FEDD7E"/>
<path d="M200.402 87.8889H257.697V99.5704H200.402V87.8889Z" fill="#FF804F"/>
<path d="M200.402 95.6765H257.697V99.5703H200.402V95.6765Z" fill="#FC643D"/>
<path d="M193.171 111.808H276.053V115.145H193.171V111.808Z" fill="#F5C83B"/>
<path d="M183.122 69.5325L186.415 70.0743L178.108 120.571L174.815 120.029L183.122 69.5325Z" fill="#237489"/>
<path d="M159.063 74.3027L155.922 75.4322L173.241 123.588L176.382 122.459L159.063 74.3027Z" fill="#FFC54C"/>
<path d="M169.226 81.2139L165.915 81.6315L172.319 132.405L175.63 131.987L169.226 81.2139Z" fill="#CE4646"/>
<path d="M164.246 99.5704H186.496V133.502H164.246V99.5704Z" fill="#EB5639"/>
<path d="M178.172 99.5704H186.516V133.502H178.172V99.5704Z" fill="#DA4022"/>
<path d="M199.867 140.734H248.261V150.191H199.867V140.734Z" fill="#B97665"/>
<path d="M216.277 150.191H239.918L242.421 157.422H219.614L216.277 150.191Z" fill="#B97665" fill-opacity="0.5"/>
<path d="M16.5964 145.944L-34.6971 287.957L-25.4012 287.957L40.6627 145.944L16.5964 145.944Z" fill="#E5A58A"/>
<path d="M29.8152 145.944L-29.1483 287.957L-25.4016 287.957L40.6623 145.944L29.8152 145.944Z" fill="#D48969"/>
<path d="M38.7156 150.191H15.0746L12.5714 157.422H35.378L38.7156 150.191Z" fill="#B97665" fill-opacity="0.5"/>
<path d="M5.17578 140.734H53.5703V150.191H5.17578V140.734Z" fill="#B97665"/>
<path d="M76.3772 120.152L113.647 126.827L151.472 120.152V130.165H76.3772V120.152Z" fill="#F4F4F4"/>
<path d="M76.3772 126.271L113.647 128.867L151.472 126.271V130.165H76.3772V126.271Z" fill="#D7D7D7"/>
<path d="M74.1523 130.165H153.141V133.502H74.1523V130.165Z" fill="#FC643D"/>
<path d="M218.501 71.2738C218.501 63.4399 225.176 60.9104 231.294 63.1355C236.301 60.6323 244.089 63.4399 244.089 71.2738C244.089 79.1078 236.58 91.021 231.294 87.1273C226.289 91.021 218.501 79.1077 218.501 71.2738Z" fill="#AE2F17"/>
<path fill-rule="evenodd" clip-rule="evenodd" d="M227.619 62.3755C228.827 62.4361 230.072 62.6909 231.294 63.1353C236.302 60.6322 244.089 63.4398 244.089 71.2737C244.089 79.1076 236.58 91.0209 231.294 87.1271C230.226 87.9581 229.031 88.0692 227.812 87.6536C223.429 83.8267 221.793 76.3535 224.203 68.95C225.01 66.4694 226.189 64.2498 227.619 62.3755Z" fill="#DA4022"/>
<path fill-rule="evenodd" clip-rule="evenodd" d="M241.43 75.2085C241.531 74.3832 241.586 73.504 241.586 72.5918C241.586 69.8078 241.075 67.332 240.283 65.7556C241.663 66.2661 242.699 68.3857 242.699 70.923C242.699 72.6867 242.198 74.2486 241.43 75.2085Z" fill="white"/>
<path d="M209.838 124.526V126.271H208.599V121.13H210.651C211.044 121.13 211.391 121.203 211.692 121.349C211.996 121.492 212.23 121.698 212.395 121.966C212.562 122.232 212.646 122.535 212.646 122.874C212.646 123.375 212.466 123.777 212.105 124.078C211.748 124.377 211.256 124.526 210.629 124.526H209.838ZM209.838 123.57H210.651C210.891 123.57 211.073 123.509 211.198 123.389C211.325 123.269 211.389 123.1 211.389 122.881C211.389 122.641 211.324 122.449 211.194 122.305C211.065 122.162 210.888 122.089 210.665 122.087H209.838V123.57Z" fill="white"/>
<path d="M215.22 124.456H214.549V126.271H213.309V121.13H215.333C215.942 121.13 216.419 121.265 216.763 121.536C217.106 121.806 217.278 122.189 217.278 122.683C217.278 123.041 217.205 123.338 217.059 123.573C216.916 123.808 216.69 123.999 216.381 124.145L217.455 126.218V126.271H216.127L215.22 124.456ZM214.549 123.499H215.333C215.568 123.499 215.745 123.438 215.862 123.315C215.982 123.191 216.042 123.017 216.042 122.796C216.042 122.575 215.982 122.402 215.862 122.277C215.742 122.15 215.566 122.087 215.333 122.087H214.549V123.499Z" fill="white"/>
<path d="M219.347 126.271H218.111V121.13H219.347V126.271Z" fill="white"/>
<path d="M222.119 124.456H221.448V126.271H220.209V121.13H222.232C222.842 121.13 223.318 121.265 223.662 121.536C224.006 121.806 224.178 122.189 224.178 122.683C224.178 123.041 224.105 123.338 223.959 123.573C223.815 123.808 223.589 123.999 223.281 124.145L224.354 126.218V126.271H223.027L222.119 124.456ZM221.448 123.499H222.232C222.467 123.499 222.644 123.438 222.762 123.315C222.882 123.191 222.942 123.017 222.942 122.796C222.942 122.575 222.882 122.402 222.762 122.277C222.642 122.15 222.465 122.087 222.232 122.087H221.448V123.499Z" fill="white"/>
<path d="M229.28 123.806C229.28 124.307 229.187 124.751 229.001 125.137C228.815 125.523 228.55 125.821 228.206 126.031C227.865 126.238 227.476 126.341 227.038 126.341C226.6 126.341 226.211 126.241 225.872 126.041C225.534 125.839 225.269 125.55 225.078 125.176C224.89 124.802 224.791 124.372 224.781 123.887V123.598C224.781 123.094 224.873 122.65 225.057 122.267C225.243 121.881 225.508 121.583 225.851 121.373C226.197 121.164 226.59 121.059 227.031 121.059C227.466 121.059 227.855 121.163 228.196 121.37C228.537 121.577 228.802 121.872 228.99 122.256C229.181 122.637 229.277 123.075 229.28 123.57V123.806ZM228.019 123.591C228.019 123.08 227.933 122.693 227.762 122.429C227.592 122.163 227.348 122.03 227.031 122.03C226.409 122.03 226.081 122.496 226.046 123.428L226.042 123.806C226.042 124.31 226.126 124.697 226.293 124.968C226.46 125.238 226.708 125.374 227.038 125.374C227.351 125.374 227.592 125.241 227.762 124.975C227.931 124.709 228.017 124.326 228.019 123.827V123.591Z" fill="white"/>
<path d="M229.919 126.271V121.13H231.575C232.029 121.13 232.438 121.233 232.8 121.44C233.163 121.645 233.445 121.936 233.648 122.312C233.852 122.687 233.956 123.107 233.958 123.573V123.81C233.958 124.28 233.858 124.703 233.658 125.077C233.46 125.449 233.18 125.741 232.818 125.953C232.458 126.162 232.055 126.268 231.61 126.271H229.919ZM231.158 122.087V125.317H231.589C231.945 125.317 232.218 125.191 232.408 124.94C232.599 124.685 232.694 124.309 232.694 123.81V123.587C232.694 123.09 232.599 122.716 232.408 122.464C232.218 122.212 231.94 122.087 231.575 122.087H231.158Z" fill="white"/>
<path d="M237.436 125.31H235.738L235.441 126.271H234.117L236.003 121.13H237.168L239.068 126.271H237.736L237.436 125.31ZM236.035 124.353H237.14L236.585 122.57L236.035 124.353Z" fill="white"/>
<path d="M242.567 126.271H241.331V121.13H242.567V126.271Z" fill="white"/>
<path d="M245.229 126.271V121.13H246.885C247.339 121.13 247.748 121.233 248.11 121.44C248.473 121.645 248.755 121.936 248.958 122.312C249.163 122.687 249.266 123.107 249.269 123.573V123.81C249.269 124.28 249.168 124.703 248.968 125.077C248.771 125.449 248.491 125.741 248.128 125.953C247.768 126.162 247.365 126.268 246.92 126.271H245.229ZM246.468 122.087V125.317H246.899C247.255 125.317 247.528 125.191 247.718 124.94C247.909 124.685 248.004 124.309 248.004 123.81V123.587C248.004 123.09 247.909 122.716 247.718 122.464C247.528 122.212 247.25 122.087 246.885 122.087H246.468Z" fill="white"/>
<path d="M251.814 124.456H251.143V126.271H249.904V121.13H251.927C252.537 121.13 253.014 121.265 253.357 121.536C253.701 121.806 253.873 122.189 253.873 122.683C253.873 123.041 253.8 123.338 253.654 123.573C253.51 123.808 253.284 123.999 252.976 124.145L254.049 126.218V126.271H252.722L251.814 124.456ZM251.143 123.499H251.927C252.163 123.499 252.339 123.438 252.457 123.315C252.577 123.191 252.637 123.017 252.637 122.796C252.637 122.575 252.577 122.402 252.457 122.277C252.337 122.15 252.16 122.087 251.927 122.087H251.143V123.499Z" fill="white"/>
<path d="M258.654 121.13V124.495C258.654 124.876 258.573 125.207 258.41 125.487C258.248 125.765 258.015 125.976 257.711 126.122C257.407 126.268 257.048 126.341 256.634 126.341C256.008 126.341 255.515 126.179 255.155 125.854C254.794 125.529 254.611 125.084 254.604 124.519V121.13H255.85V124.544C255.864 125.107 256.126 125.388 256.634 125.388C256.891 125.388 257.085 125.317 257.217 125.176C257.348 125.035 257.414 124.805 257.414 124.488V121.13H258.654Z" fill="white"/>
<path d="M262.082 124.904C262.082 124.723 262.018 124.582 261.888 124.48C261.761 124.379 261.536 124.275 261.214 124.166C260.891 124.058 260.628 123.953 260.423 123.852C259.757 123.525 259.423 123.075 259.423 122.503C259.423 122.218 259.506 121.968 259.671 121.751C259.838 121.532 260.073 121.363 260.377 121.243C260.681 121.12 261.022 121.059 261.401 121.059C261.77 121.059 262.101 121.125 262.393 121.257C262.687 121.389 262.916 121.577 263.078 121.822C263.24 122.064 263.322 122.342 263.322 122.655H262.086C262.086 122.445 262.021 122.283 261.892 122.168C261.765 122.052 261.591 121.995 261.373 121.995C261.151 121.995 260.976 122.044 260.846 122.143C260.719 122.24 260.656 122.363 260.656 122.514C260.656 122.646 260.726 122.766 260.868 122.874C261.009 122.98 261.257 123.09 261.613 123.206C261.968 123.319 262.26 123.441 262.488 123.573C263.044 123.893 263.322 124.335 263.322 124.897C263.322 125.347 263.152 125.7 262.813 125.956C262.474 126.213 262.009 126.341 261.418 126.341C261.002 126.341 260.624 126.267 260.285 126.119C259.948 125.968 259.694 125.763 259.522 125.504C259.353 125.243 259.268 124.943 259.268 124.604H260.511C260.511 124.879 260.582 125.083 260.723 125.215C260.866 125.344 261.098 125.409 261.418 125.409C261.623 125.409 261.785 125.366 261.902 125.278C262.022 125.189 262.082 125.064 262.082 124.904ZM261.38 120.222L261.899 119.749H262.912V119.788L261.761 120.787H260.995L259.837 119.781V119.749H260.861L261.38 120.222Z" fill="white"/>
<path d="M267.993 122.087H266.45V126.271H265.211V122.087H263.696V121.13H267.993V122.087Z" fill="white"/>
<path d="M270.571 124.872L271.595 121.13H272.979L271.249 126.271H269.893L268.177 121.13H269.55L270.571 124.872Z" fill="white"/>
<path d="M277.661 123.806C277.661 124.307 277.568 124.751 277.382 125.137C277.196 125.523 276.931 125.821 276.587 126.031C276.246 126.238 275.856 126.341 275.419 126.341C274.981 126.341 274.592 126.241 274.253 126.041C273.914 125.839 273.65 125.55 273.459 125.176C273.271 124.802 273.172 124.372 273.162 123.887V123.598C273.162 123.094 273.254 122.65 273.438 122.267C273.624 121.881 273.889 121.583 274.232 121.373C274.578 121.164 274.971 121.059 275.412 121.059C275.847 121.059 276.235 121.163 276.577 121.37C276.918 121.577 277.183 121.872 277.371 122.256C277.562 122.637 277.658 123.075 277.661 123.57V123.806ZM276.4 123.591C276.4 123.08 276.314 122.693 276.142 122.429C275.973 122.163 275.729 122.03 275.412 122.03C274.79 122.03 274.462 122.496 274.426 123.428L274.423 123.806C274.423 124.31 274.506 124.697 274.674 124.968C274.841 125.238 275.089 125.374 275.419 125.374C275.732 125.374 275.973 125.241 276.142 124.975C276.312 124.709 276.398 124.326 276.4 123.827V123.591Z" fill="white"/>
<path d="M208.642 96.2328H207.505V94.2511H205.82V96.2328H204.676V91.4872H205.82V93.3711H207.505V91.4872H208.642V96.2328Z" fill="white"/>
<path d="M211.132 94.5575H210.513V96.2328H209.369V91.4872H211.237C211.799 91.4872 212.239 91.6121 212.557 91.862C212.874 92.1119 213.032 92.465 213.032 92.9213C213.032 93.2516 212.965 93.5254 212.83 93.7426C212.698 93.9599 212.489 94.1359 212.205 94.2707L213.195 96.1839V96.2328H211.97L211.132 94.5575ZM210.513 93.6742H211.237C211.454 93.6742 211.617 93.6177 211.725 93.5047C211.836 93.3895 211.892 93.2298 211.892 93.0256C211.892 92.8213 211.836 92.6616 211.725 92.5465C211.615 92.4291 211.452 92.3705 211.237 92.3705H210.513V93.6742Z" fill="white"/>
<path d="M215.5 94.9421L216.445 91.4872H217.723L216.126 96.2328H214.874L213.29 91.4872H214.558L215.5 94.9421Z" fill="white"/>
<path d="M220.519 95.3462H218.951L218.678 96.2328H217.455L219.196 91.4872H220.271L222.025 96.2328H220.796L220.519 95.3462ZM219.225 94.463H220.245L219.734 92.817L219.225 94.463Z" fill="white"/>
<path d="M225.708 92.3705H224.284V96.2328H223.14V92.3705H221.741V91.4872H225.708V92.3705Z" fill="white"/>
<path d="M228.589 94.9714C228.589 94.8041 228.529 94.6737 228.41 94.5803C228.293 94.4869 228.085 94.3902 227.787 94.2902C227.49 94.1903 227.246 94.0936 227.057 94.0001C226.442 93.6981 226.135 93.2831 226.135 92.7551C226.135 92.4921 226.211 92.2607 226.363 92.0608C226.517 91.8587 226.735 91.7023 227.015 91.5915C227.295 91.4785 227.61 91.422 227.96 91.422C228.301 91.422 228.607 91.4828 228.876 91.6045C229.148 91.7262 229.358 91.9 229.508 92.126C229.658 92.3498 229.733 92.6062 229.733 92.8952H228.593C228.593 92.7018 228.533 92.5519 228.413 92.4454C228.296 92.339 228.136 92.2857 227.934 92.2857C227.73 92.2857 227.568 92.3314 227.448 92.4226C227.331 92.5117 227.272 92.6258 227.272 92.7648C227.272 92.8865 227.338 92.9973 227.468 93.0973C227.598 93.1951 227.828 93.2972 228.156 93.4037C228.484 93.508 228.753 93.621 228.964 93.7426C229.477 94.0382 229.733 94.4456 229.733 94.9649C229.733 95.3799 229.577 95.7058 229.264 95.9427C228.951 96.1795 228.522 96.298 227.976 96.298C227.592 96.298 227.243 96.2295 226.93 96.0926C226.62 95.9536 226.385 95.7645 226.226 95.5255C226.07 95.2843 225.992 95.0073 225.992 94.6944H227.139C227.139 94.9486 227.204 95.1365 227.334 95.2582C227.467 95.3777 227.681 95.4375 227.976 95.4375C228.166 95.4375 228.314 95.3973 228.423 95.3169C228.534 95.2343 228.589 95.1192 228.589 94.9714Z" fill="white"/>
<path d="M231.933 94.4662L231.464 94.9812V96.2328H230.32V91.4872H231.464V93.5797L231.862 92.9767L232.885 91.4872H234.3L232.696 93.5862L234.3 96.2328H232.944L231.933 94.4662Z" fill="white"/>
<path d="M235.809 96.2328H234.668V91.4872H235.809V96.2328Z" fill="white"/>
<path d="M223.732 104.047L224.968 107.899L226.2 104.047H227.957V109.583H226.618V108.29L226.748 105.644L225.409 109.583H224.527L223.185 105.64L223.314 108.29V109.583H221.979V104.047H223.732Z" fill="white"/>
<path d="M232.022 108.549H230.193L229.873 109.583H228.447L230.478 104.047H231.733L233.779 109.583H232.345L232.022 108.549ZM230.512 107.518H231.702L231.105 105.598L230.512 107.518Z" fill="white"/>
<path d="M238.075 105.077H236.414V109.583H235.079V105.077H233.448V104.047H238.075V105.077Z" fill="white"/>
<path d="M242.076 107.237H239.977V108.556H242.456V109.583H238.642V104.047H242.464V105.077H239.977V106.245H242.076V107.237Z" fill="white"/>
<path d="M244.753 104.047L245.989 107.899L247.221 104.047H248.977V109.583H247.639V108.29L247.768 105.644L246.43 109.583H245.547L244.205 105.64L244.334 108.29V109.583H243V104.047H244.753Z" fill="white"/>
<path d="M253.042 108.549H251.213L250.894 109.583H249.468L251.498 104.047H252.753L254.799 109.583H253.366L253.042 108.549ZM251.533 107.518H252.723L252.126 105.598L251.533 107.518Z" fill="white"/>
<path d="M259.096 105.077H257.434V109.583H256.1V105.077H254.468V104.047H259.096V105.077Z" fill="white"/>
<path d="M261.085 109.583H259.754V104.047H261.085V109.583Z" fill="white"/>
<path d="M263.895 107.522L263.347 108.123V109.583H262.013V104.047H263.347V106.488L263.811 105.784L265.005 104.047H266.655L264.785 106.495L266.655 109.583H265.074L263.895 107.522Z" fill="white"/>
<path d="M270.139 108.549H268.31L267.99 109.583H266.564L268.595 104.047H269.85L271.895 109.583H270.462L270.139 108.549ZM268.629 107.518H269.819L269.222 105.598L268.629 107.518Z" fill="white"/>
<path d="M28.5388 129.608H54.683V134.058H28.5388V129.608Z" fill="#FEDD7E"/>
<path d="M28.5388 132.39H54.683V134.058H28.5388V132.39Z" fill="#DEBC5A"/>
<path d="M38.5515 129.608L38.5515 112.364L44.6704 112.364L44.6704 129.608L38.5515 129.608Z" fill="#FEDD7E"/>
<path fill-rule="evenodd" clip-rule="evenodd" d="M16.4209 104.306C17.4247 103.144 19.1809 103.015 20.3437 104.019C32.204 114.257 50.1181 112.942 60.3562 101.081C70.5942 89.221 69.2792 71.3069 57.4189 61.0688C56.2562 60.0651 56.1272 58.3088 57.131 57.146C58.1347 55.9833 59.891 55.8543 61.0538 56.8581C75.2395 69.1036 76.8124 90.5303 64.5669 104.716C52.3214 118.902 30.8947 120.475 16.7089 108.229C15.5461 107.226 15.4172 105.469 16.4209 104.306Z" fill="#FEDD7E"/>
<path d="M64.6958 81.7701C64.6958 96.2092 52.9907 107.914 38.5516 107.914C24.1126 107.914 12.4075 96.2092 12.4075 81.7701C12.4075 67.3311 24.1126 55.626 38.5516 55.626C52.9907 55.626 64.6958 67.3311 64.6958 81.7701Z" fill="#018E90"/>
<path d="M29.5869 58.2511C29.4574 58.2511 29.315 58.3046 29.1701 58.3871C29.5113 58.287 29.6718 58.2511 29.5869 58.2511ZM38.036 59.9039L38.1202 58.6645L36.8164 58.7463L36.9885 59.9039H38.036ZM23.3164 81.3304C23.0533 81.0822 23.2294 80.0057 23.2294 80.0057C23.2294 80.0057 19.3094 77.9396 15.042 76.6973C14.5157 76.5443 14.7817 75.457 15.3023 75.0451L15.1296 73.8841C15.0433 73.3069 16.0017 70.4939 16.9594 70.2477C17.9178 69.9979 16.8716 71.9004 16.8716 71.9004L15.9145 72.4795C15.9145 72.4795 17.0464 73.8022 17.3087 73.8022C17.5691 73.8022 18.0047 73.1391 18.0047 73.1391L16.786 72.3144L17.9177 71.8164L17.9892 71.3807L18.1794 71.3199L20.0545 68.4715C21.35 67.9398 22.9425 67.2808 23.1448 67.184C23.4942 67.0197 25.9318 65.6144 26.3675 65.2842C26.8045 64.9513 27.7602 65.0359 28.1082 65.0359C28.4582 65.0359 28.9796 64.8695 29.0665 63.9581C29.1535 63.0489 29.5022 62.8832 29.7645 63.132C30.0262 63.3777 29.5022 63.793 30.1126 63.9581C30.7217 64.1246 31.2445 64.538 31.6808 64.1246C31.9991 63.8221 31.5729 63.477 31.2862 63.2166H36.1222L36.6456 61.7246L35.5131 61.5597L31.3307 61.147V60.6497L30.9976 60.7066C31.4501 58.2107 34.1393 58.6221 32.1145 57.1777C31.9918 57.089 30.2207 59.9772 29.7695 59.9213C28.9526 59.8129 27.8985 59.8041 27.6739 60.0707C27.3757 60.4225 28.3416 58.8609 29.1726 58.3875C28.1811 58.6805 26.4046 57.7752 23.2015 60.045C22.1183 60.813 19.3994 63.9245 18.2806 65.1207C13.5539 70.7186 13.1729 75.5076 13.1729 75.72C13.1729 76.1333 14.1738 76.3667 14.26 76.8648C14.3477 77.358 12.6056 79.0149 12.6056 79.8418C12.6056 80.2219 11.7335 84.3516 13.6489 89.5194C15.3478 94.4218 18.6353 98.7454 19.0574 99.016L20.2681 98.3718C20.2681 98.3718 18.2649 94.8145 18.1786 94.483C18.0924 94.1524 20.4429 89.3544 21.5766 89.5219C22.7084 89.683 22.4473 90.0174 23.1441 89.6031C23.8415 89.192 24.2765 85.7969 25.0603 85.4679C25.8447 85.1354 26.7147 84.7225 26.6283 83.8955C26.5376 83.0658 23.5767 81.5781 23.3164 81.3304ZM42.2165 57.0096L39.8651 56.1821L40.3008 57.5068L42.2165 57.0096ZM33.4192 60.0705C33.6815 60.0705 38.906 56.5976 38.384 56.5138C37.8627 56.432 37.7756 56.5138 36.3795 56.3481C34.988 56.183 33.5057 58.3338 33.1583 58.6661C32.8094 58.9967 32.9268 60.0705 33.4192 60.0705ZM57.3999 85.0128L58.0746 84.1347L57.3999 83.8968L56.8942 84.5342L56.3049 85.4109L56.8091 85.6493L57.3999 85.0128ZM60.3487 87.8844L60.1799 86.6071H59.0863L59.0014 87.5635L57.9881 87.4051L57.7371 86.3686L57.2313 86.049L56.6406 86.7664L56.0512 86.6081L55.8811 87.1641L56.5568 87.3265V92.5064L58.942 93.0827C58.8866 93.1775 58.846 93.2588 58.8325 93.302C58.6627 93.8611 59.5055 94.1031 60.0954 93.8611C60.3136 93.773 61.6885 93.2427 62.124 92.2023C62.7314 90.7531 63.1236 88.6665 63.2291 87.9911L62.9619 87.4051L61.2757 88.0441L60.3462 87.8842L60.3487 87.8844ZM59.5043 66.6697C55.6478 60.8038 46.3817 56.9705 46.3817 56.9705L43.9957 58.2242L43.6568 57.6681L42.8152 57.348V58.0664L43.5734 58.7052L43.0689 58.944L41.1291 59.1023L36.7456 61.4947L37.1665 63.4081L36.6592 63.5685L36.4084 63.9664L37.8415 66.1172L37.925 66.8363L36.7454 67.0752V68.5096L36.0716 68.6686L36.1559 69.7855L30.4221 73.7739L30.5908 76.0032C31.0115 76.562 34.3004 79.9111 34.3004 79.9111C34.3004 79.9111 38.0928 80.0688 38.936 79.5925C39.7797 79.1141 39.1881 80.0709 39.4424 80.3103C39.6934 80.5504 39.7797 82.2237 40.0305 82.3834C40.2843 82.5421 40.0305 83.4977 40.3678 83.8198C40.7052 84.1362 40.7052 87.9645 40.7052 87.9645C40.7052 87.9645 42.7284 91.3918 42.7284 92.2689C42.7284 93.1456 42.6434 93.0658 44.2458 92.9859C45.8471 92.9075 46.1843 92.2689 46.5216 92.0307C46.8589 91.7924 46.8589 91.2336 47.196 90.7533C47.536 90.2739 48.1241 88.4432 48.8836 87.8059C49.6403 87.1658 51.6651 86.687 51.8323 85.5732C52.0011 84.4557 52.7589 83.5786 52.7589 83.5786L56.4037 79.7114L56.3013 80.231L56.2177 82.2228L57.3145 81.8248L57.2308 79.6707L56.8382 79.2532L56.8937 79.1924C56.8937 79.1924 56.6401 78.714 56.3044 78.714C55.9668 78.714 53.9423 79.1924 53.6064 79.1131C53.2689 79.0327 51.8352 75.2054 51.5831 75.0484C51.3292 74.8887 49.7295 72.2562 49.7295 72.2562C49.7295 72.2562 53.4364 76.7208 54.0271 78.4746C54.3695 79.4961 55.6565 78.5449 56.7033 77.4793L56.9799 78.1573L57.653 77.9962L57.5695 77.1993H58.3274V78.3948L58.0754 79.0335L57.989 80.0688L58.6649 80.708L59.0022 80.1512L60.0948 79.1133L61.3598 78.4755L61.6986 79.1133L61.8671 79.9909L61.5299 80.9468L60.8555 81.505L60.5184 82.94V83.6572L59.7601 83.1782L59.6766 81.6649L58.5811 81.7458L58.0768 83.0997L58.8348 84.2171L60.6045 84.4569L62.0371 83.0997L62.2056 80.4718L62.8439 79.6268C63.2593 80.6978 63.5562 81.8182 63.5562 82.863C63.5562 84.0077 64.4599 82.285 64.0177 78.794C64.0181 78.7939 63.3247 70.5018 59.5043 66.6697ZM42.6454 70.1045L38.0938 69.943L40.0309 68.3496H41.0427L42.6454 69.4645V70.1045ZM48.2108 69.5465V70.2636H46.2726L46.4412 70.7433L45.2594 70.9043L45.1772 71.3L44.3342 71.1432L42.8154 70.8225L43.0691 70.4252L43.3227 69.9449L44.1656 69.068L44.5043 69.7068L45.7668 69.6261L46.4413 68.9076L49.0555 69.3866L48.2108 69.5465ZM48.3783 68.5093L47.3664 68.6683L47.1992 67.9499L48.4619 67.7915L48.632 67.0743L49.56 68.0317L48.3783 68.508V68.5093ZM53.2694 93.3022L52.6786 93.7814L52.7625 94.9776H53.5204V93.9439L54.1977 93.0644V91.2321L53.774 91.1494L53.2694 93.3022ZM47.6214 90.9127C47.6214 90.9127 47.0305 91.0668 47.7038 91.3104C48.3783 91.5514 51.0763 87.4053 51.0763 87.4053L48.7992 88.8398L47.62 90.9128L47.6214 90.9127ZM43.0324 106.192L42.528 105.711L41.5162 105.55L41.349 106.033L40 105.873L39.9153 105.232H38.904L37.8088 105.873H35.8717L35.703 105.392L32.5856 105.068L32.0798 105.551L30.8177 105.232L30.6485 104.106L30.0591 104.024L29.3846 105.232L27.1097 105.151C27.5171 105.343 30.9131 107.377 36.1233 107.8C43.0325 108.36 46.3186 106.677 46.3186 106.677L46.0665 106.434L43.0325 106.194L43.0324 106.192Z" fill="white"/>
<path fill-rule="evenodd" clip-rule="evenodd" d="M38.8294 112.921C55.5725 112.921 69.1455 99.3477 69.1455 82.6046C69.1455 72.5035 64.2053 63.5562 56.6093 58.047C56.2446 59.093 56.5291 60.3012 57.4186 61.069C69.2788 71.307 70.5939 89.2212 60.3558 101.081C50.1178 112.942 32.2036 114.257 20.3434 104.019C19.4106 103.214 18.096 103.137 17.0942 103.739C22.6023 109.402 30.305 112.921 38.8294 112.921Z" fill="black" fill-opacity="0.2"/>
<path fill-rule="evenodd" clip-rule="evenodd" d="M237.657 53.7829C235.769 54.0008 233.473 55.4026 231.851 57.486C230.228 59.5694 229.739 61.7445 230.428 63.0657L237.657 53.7829Z" fill="#018C06"/>
<path fill-rule="evenodd" clip-rule="evenodd" d="M230.461 63.24C232.349 63.022 234.645 61.6202 236.267 59.5368C237.89 57.4534 238.379 55.2784 237.69 53.9572L230.461 63.24Z" fill="#018C06"/>
</g>
<defs>
<clipPath id="clip0">
<rect width="305" height="168" fill="white"/>
</clipPath>
</defs>
</svg>
